<mxfile host="app.diagrams.net" modified="2023-06-25T07:58:04.579Z" agent="Mozilla/5.0 (X11; Linux x86_64) AppleWebKit/537.36 (KHTML, like Gecko) Chrome/114.0.0.0 Safari/537.36 Edg/114.0.1823.58" version="21.4.0" etag="Fvm5E_RBdEmr5_DbJewS" type="github">
  <diagram name="第 1 页" id="tWXGshXkXdDXmLzRbF15">
    <mxGraphModel>
      <root>
        <mxCell id="0" />
        <mxCell id="1" parent="0" />
      </root>
    </mxGraphModel>
  </diagram>
</mxfile>
